0
SECTION
2
HEADER
9
$INSUNITS
70
1
9
$ACADVER
1
AC1014
9
$HANDSEED
5
FFFF
0
ENDSEC
0
SECTION
2
TABLES
0
TABLE
2
VPORT
5
8
100
AcDbSymbolTable
0
ENDTAB
0
TABLE
2
LTYPE
5
5
100
AcDbSymbolTable
0
LTYPE
5
14
100
AcDbSymbolTableRecord
100
AcDbLinetypeTableRecord
2
BYBLOCK
70
0
0
LTYPE
5
15
100
AcDbSymbolTableRecord
100
AcDbLinetypeTableRecord
2
BYLAYER
70
0
0
ENDTAB
0
TABLE
2
LAYER
5
2
100
AcDbSymbolTable
70
2
0
LAYER
5
50
100
AcDbSymbolTableRecord
100
AcDbLayerTableRecord
2
0
70
0
6
CONTINUOUS
0
ENDTAB
0
TABLE
2
STYLE
5
3
100
AcDbSymbolTable
70
1
0
STYLE
5
11
100
AcDbSymbolTableRecord
100
AcDbTextStyleTableRecord
2
STANDARD
70
0
0
ENDTAB
0
TABLE
2
VIEW
5
6
100
AcDbSymbolTable
70
0
0
ENDTAB
0
TABLE
2
UCS
5
7
100
AcDbSymbolTable
70
0
0
ENDTAB
0
TABLE
2
APPID
5
9
100
AcDbSymbolTable
70
2
0
APPID
5
12
100
AcDbSymbolTableRecord
100
AcDbRegAppTableRecord
2
ACAD
70
0
0
ENDTAB
0
TABLE
2
DIMSTYLE
5
A
100
AcDbSymbolTable
70
1
0
ENDTAB
0
TABLE
2
BLOCK_RECORD
5
1
100
AcDbSymbolTable
70
1
0
BLOCK_RECORD
5
1F
100
AcDbSymbolTableRecord
100
AcDbBlockTableRecord
2
*MODEL_SPACE
0
BLOCK_RECORD
5
1B
100
AcDbSymbolTableRecord
100
AcDbBlockTableRecord
2
*PAPER_SPACE
0
ENDTAB
0
ENDSEC
0
SECTION
2
BLOCKS
0
BLOCK
5
20
100
AcDbEntity
100
AcDbBlockBegin
2
*MODEL_SPACE
0
ENDBLK
5
21
100
AcDbEntity
100
AcDbBlockEnd
0
BLOCK
5
1C
100
AcDbEntity
100
AcDbBlockBegin
2
*PAPER_SPACE
0
ENDBLK
5
1D
100
AcDbEntity
100
AcDbBlockEnd
0
ENDSEC
0
SECTION
2
ENTITIES
0
CIRCLE
5
100
100
AcDbEntity
8
0
100
AcDbCircle
10
0
20
1.696611013938123
30
0
40
0.1875
210
0
220
-1.97215226305253e-31
230
1
0
CIRCLE
5
101
100
AcDbEntity
8
0
100
AcDbCircle
10
0
20
3.6966109839011363
30
0
40
0.12500000000000008
210
0
220
-0
230
1
0
CIRCLE
5
102
100
AcDbEntity
8
0
100
AcDbCircle
10
0
20
1.696611013938123
30
0
40
2.9999999999999996
210
0
220
-1.9721522630525295e-31
230
1
0
LWPOLYLINE
5
103
100
AcDbEntity
8
0
100
AcDbPolyline
90
4
70
1
43
0.0
10
-0.56386521489549801
20
-2.3962937635868622
10
-0.56386521489549979
20
-2.8655173571824468
10
1.9361347851044948
20
-3.4905173571824553
10
1.9361347851044997
20
-1.7712937635868713
0
CIRCLE
5
104
100
AcDbEntity
8
0
100
AcDbCircle
10
-1.0638652148954977
20
-2.6309055125132055
30
0
40
0.12500000000000022
210
3.7912006778173733e-34
220
-5.9164567891575885e-31
230
1
0
LWPOLYLINE
5
105
100
AcDbEntity
8
0
100
AcDbPolyline
90
10
70
1
43
0.0
10
2.6861347851044988
20
-2.1309055603846669
10
2.4361347851044992
20
-2.1309055603846661
10
2.4361347851044952
20
-3.1309055603846647
10
2.6861347851044952
20
-3.1309055603846665
10
2.6861347851044912
20
-4.1309055603846652
10
2.4361347851044912
20
-4.1309055603846643
10
-1.5638652148954983
20
-3.1309055603846514
10
-1.5638652148954948
20
-2.1309055603846518
10
2.4361347851045028
20
-1.1309055603846669
10
2.6861347851045023
20
-1.1309055603846678
0
LWPOLYLINE
5
106
100
AcDbEntity
8
0
100
AcDbPolyline
90
4
70
1
43
0.0
10
-2.8298355730664033
20
-2.8655173566220347
10
-2.8298355730663838
20
-2.3962937630264496
10
-5.3298355730663598
20
-1.7712937630263468
10
-5.3298355730664291
20
-3.4905173566219321
0
CIRCLE
5
107
100
AcDbEntity
8
0
100
AcDbCircle
10
-2.3298355730663936
20
-2.63090560769571
30
0
40
0.12500000000000039
210
3.9428487038707982e-34
220
-3.944304526105059e-31
230
1
0
LWPOLYLINE
5
108
100
AcDbEntity
8
0
100
AcDbPolyline
90
10
70
1
43
0.0
10
-6.0798355730664158
20
-3.1309055598241082
10
-5.8298355730664158
20
-3.1309055598241184
10
-5.8298355730663749
20
-2.130905559824118
10
-6.0798355730663749
20
-2.1309055598241078
10
-6.079835573066334
20
-1.1309055598241078
10
-5.829835573066334
20
-1.1309055598241184
10
-1.8298355730663725
20
-2.1309055598242828
10
-1.8298355730664133
20
-3.1309055598242836
10
-5.8298355730664575
20
-4.1309055598241189
10
-6.0798355730664575
20
-4.1309055598241082
0
LWPOLYLINE
5
109
100
AcDbEntity
8
0
100
AcDbPolyline
90
4
70
1
43
0.0
10
-3.512106299212598
20
4.1807086131238611
10
-3.512106299212598
20
4.0807086131238606
10
-3.2621062992125984
20
4.0807086131238606
10
-3.2621062992125984
20
4.1807086131238611
0
LWPOLYLINE
5
110
100
AcDbEntity
8
0
100
AcDbPolyline
90
4
70
1
43
0.0
10
-3.2621062992125975
20
3.5807086131238619
10
-3.5121062992125975
20
3.5807086131238619
10
-3.5121062992125975
20
3.4807086131238614
10
-3.2621062992125975
20
3.4807086131238623
0
LWPOLYLINE
5
111
100
AcDbEntity
8
0
100
AcDbPolyline
90
4
70
1
43
0.0
10
-5.449606299212598
20
0.83070861312386401
10
-5.699606299212598
20
0.83070861312386401
10
-5.6996062992125971
20
-0.1692913868761341
10
-5.4496062992125971
20
-0.16929138687613463
0
LWPOLYLINE
5
112
100
AcDbEntity
8
0
100
AcDbPolyline
90
4
70
1
43
0.0
10
-3.949606299212598
20
0.83070861312386401
10
-4.199606299212598
20
0.83070861312386401
10
-4.199606299212598
20
-0.1692913868761341
10
-3.949606299212598
20
-0.16929138687613463
0
LWPOLYLINE
5
113
100
AcDbEntity
8
0
100
AcDbPolyline
90
12
70
1
43
0.0
10
-3.9121062992125979
20
4.0807086131238606
10
-3.6621062992125983
20
4.0807086131238606
10
-3.6621062992125983
20
4.1807086131238611
10
-3.9121062992125979
20
4.1807086131238611
10
-3.9121062992125979
20
4.0807086131238606
10
-3.9121062992125979
20
3.580708613123861
10
-3.6621062992125974
20
3.5807086131238619
10
-3.6621062992125974
20
3.4807086131238623
10
-3.9121062992125979
20
3.4807086131238614
10
-3.9121062992125979
20
3.580708613123861
10
-4.012106299212598
20
3.5807086131238619
10
-4.012106299212598
20
4.0807086131238615
0
LWPOLYLINE
5
114
100
AcDbEntity
8
0
100
AcDbPolyline
90
4
70
1
43
0.0
10
-5.449606299212598
20
2.8307086131238623
10
-5.699606299212598
20
2.8307086131238623
10
-5.6996062992125971
20
1.830708613123863
10
-5.4496062992125971
20
1.8307086131238632
0
LWPOLYLINE
5
115
100
AcDbEntity
8
0
100
AcDbPolyline
90
4
70
1
43
0.0
10
-3.949606299212598
20
2.8307086131238628
10
-4.199606299212598
20
2.8307086131238628
10
-4.199606299212598
20
1.8307086131238637
10
-3.949606299212598
20
1.8307086131238639
0
LWPOLYLINE
5
116
100
AcDbEntity
8
0
100
AcDbPolyline
90
4
70
1
43
0.0
10
-6.1496062992125982
20
4.3307086131238606
10
-3.1496062992125982
20
4.3307086131238615
10
-3.1496062992125982
20
-0.66929138687613388
10
-6.1496062992125982
20
-0.66929138687613421
0
CIRCLE
5
117
100
AcDbEntity
8
0
100
AcDbCircle
10
-7.1000000000000005
20
0.52499995170653779
30
0
40
0.1875
210
0
220
-1.97215226305253e-31
230
1
0
CIRCLE
5
118
100
AcDbEntity
8
0
100
AcDbCircle
10
-7.1000000000000005
20
0.52499995170653779
30
0
40
0.75
210
0
220
-1.97215226305253e-31
230
1
0
CIRCLE
5
119
100
AcDbEntity
8
0
100
AcDbCircle
10
-7
20
2.124999951706537
30
0
40
0.18750000000000008
210
0
220
-1.9721522630525295e-31
230
1
0
CIRCLE
5
120
100
AcDbEntity
8
0
100
AcDbCircle
10
-7
20
2.124999951706537
30
0
40
0.62500000000000022
210
0
220
0
230
1
0
CIRCLE
5
121
100
AcDbEntity
8
0
100
AcDbCircle
10
-7
20
3.6249999517065388
30
0
40
0.18750000000000011
210
0
220
-1.9721522630525295e-31
230
1
0
CIRCLE
5
122
100
AcDbEntity
8
0
100
AcDbCircle
10
-7
20
3.6249999517065388
30
0
40
0.62500000000000044
210
0
220
0
230
1
0
LWPOLYLINE
5
123
100
AcDbEntity
8
0
100
AcDbPolyline
90
4
70
1
43
0.0
10
-7.9158802016629757
20
-4.4999999324167801
10
3.0841197983370257
20
-4.4999999324167801
10
3.0841197983370257
20
5.0000000675832181
10
-7.9158802016629757
20
5.0000000675832181
0
ENDSEC
0
SECTION
2
OBJECTS
0
DICTIONARY
5
C
100
AcDbDictionary
3
ACAD_GROUP
350
D
3
ACAD_MLINESTYLE
350
17
0
DICTIONARY
5
D
100
AcDbDictionary
0
DICTIONARY
5
1A
330
C
100
AcDbDictionary
0
DICTIONARY
5
17
100
AcDbDictionary
0
ENDSEC
0
EOF
