<?xml version="1.0" encoding="UTF-8"?><svg id="Layer_1" xmlns="http://www.w3.org/2000/svg" viewBox="0 0 1020 1020"><defs><style>.cls-1{fill:#fff;}</style></defs><rect class="cls-1" width="1020" height="1020" rx="120" ry="120"/><path d="m307.17,897.95c-69.12-35.84-123.98-86.17-164.59-150.98-40.61-64.8-60.91-138.23-60.91-220.31s20.3-155.08,60.91-224.2,98.06-124.64,172.38-166.55c74.3-41.91,159.41-62.86,255.31-62.86,34.56,0,79.48,4.97,134.78,14.91s97.2,20.53,125.72,31.75c14.69,5.19,23.33,15.56,25.92,31.11,10.36,68.25,15.55,119.23,15.55,152.92,0,8.66-1.95,15.14-5.83,19.45-3.89,4.31-9.3,6.47-16.2,6.47-9.5,0-16.84-2.38-22.03-7.12s-9.52-11.44-12.95-20.09c-19.02-43.19-39.75-76.45-62.22-99.78-19-19-41.25-34.12-66.73-45.36-25.5-11.23-58.11-16.86-97.86-16.86-60.48,0-112.55,16.2-156.17,48.61s-76.89,75.39-99.78,128.95c-22.91,53.56-34.34,111.89-34.34,174.95,0,120.09,22.23,215.14,66.73,285.12s108.22,104.97,191.17,104.97c19,0,35.2-3.02,48.59-9.06s27-13.83,40.83-23.33c8.62-6.91,15.75-18.14,21.38-33.7,5.62-15.55,8.44-32.39,8.44-50.55,1.72-29.38,2.59-64.8,2.59-106.27,0-22.47-9.52-37.58-28.52-45.36-16.42-9.5-44.08-18.58-82.95-27.22-7.78-1.72-14.91-5.17-21.38-10.36-6.48-5.19-9.72-11.23-9.72-18.16,0-5.17,3.02-9.7,9.06-13.59s12.09-5.84,18.16-5.84c31.97,0,66.09,1.3,102.38,3.89,46.66,1.73,78.62,2.59,95.91,2.59s43.2-.86,77.77-2.59c38-1.72,65.66-2.59,82.94-2.59,6.05,0,11.23,1.73,15.55,5.19,4.31,3.47,6.48,8.22,6.48,14.25,0,13.83-8.64,22.91-25.92,27.22-23.33,6.06-39.53,13.62-48.59,22.69-9.08,9.06-15.34,22.67-18.8,40.81-6.05,29.38-9.06,61.78-9.06,97.2v41.47c0,6.06,5.61,14.7,16.84,25.92,8.62,10.38,12.95,19.44,12.95,27.22,0,6.91-1.95,12.95-5.83,18.14-3.89,5.19-10.16,8.22-18.8,9.08-6.05.88-18.14,5.62-36.28,14.25-38.03,19.02-79.06,35-123.12,47.95s-94.61,19.44-151.62,19.44c-82.95,0-158.98-17.94-228.11-53.78Z"/></svg>