<?xml version="1.0" standalone="no"?>
<!DOCTYPE svg PUBLIC "-//W3C//DTD SVG 20010904//EN"
 "http://www.w3.org/TR/2001/REC-SVG-20010904/DTD/svg10.dtd">
<svg version="1.0" xmlns="http://www.w3.org/2000/svg"
 width="700.000000pt" height="700.000000pt" viewBox="0 0 700.000000 700.000000"
 preserveAspectRatio="xMidYMid meet">
<metadata>
Created by potrace 1.14, written by Peter Selinger 2001-2017
</metadata>
<g transform="translate(0.000000,700.000000) scale(0.100000,-0.100000)"
fill="#000000" stroke="none">
<path d="M3620 6493 c-885 -67 -1632 -404 -2210 -999 -145 -149 -226 -250
-348 -434 -254 -381 -408 -786 -479 -1255 -25 -171 -25 -668 0 -840 35 -234
94 -460 168 -648 225 -568 655 -1070 1184 -1386 573 -342 1190 -489 1930 -460
573 22 1007 136 1650 434 129 60 243 105 294 118 66 17 91 28 117 54 83 82 68
210 -38 328 -25 28 -59 70 -76 94 l-32 44 0 266 c0 288 9 427 41 621 57 342
128 426 442 524 91 29 127 45 157 72 89 81 75 207 -27 250 -43 18 -173 18
-625 -2 -393 -18 -1032 -14 -1308 7 -80 6 -262 11 -405 12 l-260 2 -47 -28
c-99 -58 -104 -146 -13 -225 54 -48 82 -59 268 -106 204 -53 322 -93 437 -151
97 -49 149 -98 182 -170 23 -49 23 -55 21 -365 -4 -590 -22 -754 -102 -926
-52 -110 -106 -162 -256 -247 -203 -115 -343 -145 -588 -127 -573 40 -976 312
-1273 856 -239 440 -374 1081 -374 1785 0 891 319 1645 881 2079 304 235 627
345 1045 357 446 13 739 -68 1033 -287 210 -156 345 -337 528 -707 133 -269
158 -294 291 -296 67 -1 97 13 136 67 45 60 18 489 -65 1051 -38 253 -68 289
-318 369 -338 109 -910 220 -1345 261 -142 13 -486 18 -616 8z"/>
</g>
</svg>
