<?xml version="1.0" standalone="no"?>
<!DOCTYPE svg PUBLIC "-//W3C//DTD SVG 20010904//EN"
 "http://www.w3.org/TR/2001/REC-SVG-20010904/DTD/svg10.dtd">
<svg version="1.0" xmlns="http://www.w3.org/2000/svg"
 width="1080.000000pt" height="1080.000000pt" viewBox="0 0 1080.000000 1080.000000"
 preserveAspectRatio="xMidYMid meet">
<metadata>
Created by potrace 1.14, written by Peter Selinger 2001-2017
</metadata>
<g transform="translate(0.000000,1080.000000) scale(0.100000,-0.100000)"
fill="#000000" stroke="none">
<path d="M6040 9803 c-761 -24 -1517 -176 -2158 -434 -159 -64 -473 -216 -617
-298 -628 -359 -1151 -861 -1506 -1446 -485 -799 -690 -1835 -574 -2895 159
-1442 920 -2548 2180 -3170 762 -375 1657 -562 2700 -563 684 0 1283 85 2195
313 266 67 750 197 757 203 1 2 -4 38 -12 80 -48 249 -65 664 -65 1562 0 1033
17 1191 136 1324 78 87 178 130 409 176 72 14 140 28 153 30 l22 5 0 290 0
290 -2165 0 -2165 0 0 -290 0 -289 33 -5 c17 -3 68 -8 112 -11 264 -20 588
-60 725 -91 246 -56 393 -148 460 -289 75 -158 82 -278 77 -1315 -4 -893 -4
-883 -55 -1031 -45 -129 -124 -209 -247 -254 -74 -26 -320 -32 -501 -11 -485
56 -907 257 -1266 604 -568 548 -938 1424 -1062 2517 -40 347 -51 870 -27
1185 74 944 343 1709 802 2280 389 485 913 787 1479 851 135 15 469 7 615 -16
788 -121 1350 -571 1690 -1350 81 -184 187 -515 220 -682 0 -2 559 37 565 40
9 3 -196 2346 -206 2356 -7 8 -326 80 -549 125 -570 115 -1111 183 -1635 206
-220 9 -310 10 -520 3z"/>
</g>
</svg>
